<?xml version="1.0" standalone="no"?>
<!DOCTYPE svg PUBLIC "-//W3C//DTD SVG 20010904//EN"
 "http://www.w3.org/TR/2001/REC-SVG-20010904/DTD/svg10.dtd">
<svg version="1.0" xmlns="http://www.w3.org/2000/svg"
 width="512.000000pt" height="512.000000pt" viewBox="0 0 512.000000 512.000000"
 preserveAspectRatio="xMidYMid meet">

<g transform="translate(0.000000,512.000000) scale(0.100000,-0.100000)"
fill="#000000" stroke="none">
<path d="M2280 5104 c-386 -54 -782 -241 -1056 -497 -319 -298 -506 -692 -575
-1212 -14 -105 -25 -2647 -14 -3113 l7 -282 689 0 689 0 0 1564 c0 1670 1
1709 49 1847 49 143 136 245 254 300 66 30 81 33 193 37 94 3 134 0 180 -13
171 -49 308 -178 365 -345 33 -94 31 -230 -3 -322 -100 -268 -336 -411 -588
-357 -27 6 -94 33 -147 60 -53 27 -98 49 -100 49 -2 0 -2 -339 -1 -752 l3
-753 50 -9 c28 -5 169 -9 315 -10 241 -1 274 1 368 22 301 66 586 203 816 391
270 221 529 599 630 919 102 323 110 741 21 1092 -75 295 -239 572 -494 834
-294 300 -635 474 -1061 541 -150 23 -458 28 -590 9z"/>
</g>
</svg>
